<svg width="16" height="16" viewBox="0 0 16 16" fill="none" xmlns="http://www.w3.org/2000/svg">
<path d="M13.3333 2C13.3333 1.63181 13.0349 1.33334 12.6667 1.33334H10.6667V0H9.33334V1.33334H7.33334V0H6V1.33334H4V0H2.66666V1.33334H0.666656C0.298469 1.33334 0 1.63181 0 2V3.33334H13.3333V2Z" fill="#FFBD54"/>
<path d="M10.6547 7.52991C11.0912 7.39897 11.5444 7.33275 12 7.33331C12.4517 7.33372 12.9008 7.39997 13.3333 7.52997V4H0V12.6667C0 13.0348 0.298469 13.3333 0.666656 13.3333H7.53C6.79031 10.8679 8.18931 8.26963 10.6547 7.52991ZM9.33334 5.33334H10.6667V6.66669H9.33334V5.33334ZM6 5.33334H7.33334V6.66669H6V5.33334ZM4 12H2.66666V10.6667H4V12ZM4 9.33334H2.66666V8H4V9.33334ZM4 6.66666H2.66666V5.33331H4V6.66666ZM6 8H7.33334V9.33334H6V8Z" fill="#FFBD54"/>
<path d="M12 8C9.79087 8 8 9.79087 8 12C8 14.2091 9.79087 16 12 16C14.2091 16 16 14.2092 16 12C15.9974 9.79194 14.2081 8.00256 12 8ZM12.4713 12.4713C12.2923 12.6489 12.0289 12.7113 11.7893 12.6327L9.78934 11.966L10.2113 10.6994L11.82 11.2327L13.5287 9.52406L14.4713 10.4667L12.4713 12.4713Z" fill="#FFBD54"/>
</svg>
