<svg width="17" height="16" viewBox="0 0 17 16" fill="none" xmlns="http://www.w3.org/2000/svg">
<path d="M16.4935 7.86891L8.84126 0.175224C8.78617 0.119678 8.72072 0.0756107 8.64868 0.0455436C8.57663 0.0154765 8.4994 0 8.4214 0C8.3434 0 8.26617 0.0154765 8.19413 0.0455436C8.12208 0.0756107 8.05664 0.119678 8.00154 0.175224L0.349266 7.86891C0.12633 8.09322 0 8.3979 0 8.71567C0 9.3755 0.533188 9.91197 1.18899 9.91197H1.99528V15.4019C1.99528 15.7327 2.26094 16 2.58977 16H7.23241V11.813H9.31314V16H14.253C14.5819 16 14.8475 15.7327 14.8475 15.4019V9.91197H15.6538C15.9696 9.91197 16.2725 9.78673 16.4954 9.56055C16.958 9.09325 16.958 8.33622 16.4935 7.86891Z" fill="#FFBD54"/>
</svg>
